<svg version="1.0" xmlns="http://www.w3.org/2000/svg" width="600.000000pt" height="328.000000pt" viewBox="0 0 600.000000 328.000000" preserveAspectRatio="xMidYMid meet" style="width: 976.304px; height: auto;">
  <g transform="translate(0.000000,328.000000) scale(0.100000,-0.100000)" fill="#000000" stroke="none" class="">
    <path d="M3580 2654 c-91 -40 -1078 -433 -1103 -439 -15 -4 -26 -9 -23 -12 2 -2 62 9 132 26 71 17 291 67 489 111 417 93 576 129 626 141 l37 9 -28 71 c-39 101 -66 121 -130 93z m69 -23 c15 -10 52 -107 43 -115 -3 -3 1 -6 9 -7 22 -1 -103 -28 -134 -28 -16 -1 -26 -5 -23 -9 2 -4 -3 -8 -12 -8 -9 -1 -26 -5 -36 -9 -14 -6 -17 -5 -11 4 6 10 2 11 -16 6 -13 -4 -25 -11 -27 -16 -2 -4 -10 -5 -18 -2 -8 3 -14 0 -14 -7 0 -7 -8 -9 -20 -5 -10 3 -29 1 -41 -5 -25 -14 -70 -23 -121 -24 -20 -1 -34 -4 -31 -8 4 -7 -8 -10 -54 -12 -10 -1 -21 -5 -24 -10 -4 -5 -32 -9 -62 -10 -31 0 -51 -3 -45 -7 15 -10 -1 -16 -57 -22 -28 -3 -63 -11 -78 -16 -34 -13 -37 -13 -37 -3 0 8 53 33 125 58 28 10 58 24 67 32 10 8 26 11 40 7 18 -5 20 -4 8 4 -13 9 -13 11 1 11 8 0 33 9 55 19 21 11 43 17 48 14 4 -3 12 0 16 7 5 8 24 14 43 14 19 1 33 4 30 9 -2 4 8 12 24 17 15 6 37 15 48 20 43 20 100 43 105 42 3 0 14 -4 25 -7 16 -6 17 -5 5 4 -11 8 -12 11 -2 11 8 0 10 5 6 12 -5 8 -2 9 9 5 9 -3 19 -2 22 2 3 5 15 7 27 3 14 -3 19 -2 14 6 -5 8 0 12 13 12 11 0 23 5 26 10 8 12 35 13 54 1z" class="" stroke-width="1"></path>
    <path d="M3585 2390 c-115 -27 -347 -79 -515 -116 -168 -36 -313 -69 -323 -73 -10 -3 212 -5 493 -3 l510 3 41 -23 c68 -38 69 -43 69 -353 0 -151 2 -275 4 -275 20 0 160 41 171 50 8 7 15 27 15 44 0 59 -155 756 -173 776 -24 28 -53 25 -292 -30z m265 19 c0 -5 5 -7 10 -4 6 4 10 -8 10 -29 0 -20 5 -36 11 -36 7 0 9 -10 7 -25 -3 -13 -2 -26 2 -27 4 -2 10 -14 14 -28 6 -20 5 -22 -4 -10 -10 12 -11 12 -5 -5 5 -11 13 -45 18 -75 6 -30 14 -57 17 -60 3 -3 7 -15 8 -27 5 -53 9 -79 15 -93 11 -29 20 -70 38 -177 7 -40 16 -70 20 -67 11 7 5 -124 -7 -136 -5 -5 -33 -12 -61 -15 -48 -6 -51 -5 -57 20 -4 14 -4 30 0 36 3 6 5 97 3 202 -3 261 -2 250 -17 266 -7 7 -10 21 -7 29 3 9 3 13 -1 10 -3 -4 -16 3 -28 15 -43 45 -58 47 -439 48 -199 0 -371 4 -382 9 -18 8 -18 9 5 10 14 1 33 1 44 0 10 -1 16 3 12 8 -3 5 7 8 24 7 18 -2 27 1 23 8 -4 6 4 8 21 3 14 -3 26 -2 26 2 0 5 12 7 28 4 15 -2 23 -1 19 4 -7 8 195 56 236 55 9 0 17 4 17 9 0 6 11 5 26 0 31 -12 44 -13 26 -2 -8 6 8 13 45 21 32 7 65 16 73 18 8 3 22 7 30 9 8 1 29 5 45 8 30 6 113 22 128 25 4 0 7 -4 7 -10z" class=""></path>
    <path d="M 1902 2414 C 1875 2395 1873 2350 1898 2327 C 1913 2313 1939 2310 2042 2310 L 2167 2310 L 2454.185 1294.964 L 2437 1269 C 2415 1239 2408.079 1163.725 2419.079 1119.725 C 2422.079 1105.725 2434 1065 2451 1046 C 2508 980 2505.206 986.284 3175.206 985.284 C 3770.206 985.284 3786.378 982.77 3812.378 1003.77 C 3843.378 1026.77 3837 1046 3814 1078 L 3799 1100 L 3180 1100 L 2561 1100 L 2540 1127 C 2513 1161 2520 1195 2561 1233 L 2591 1260 L 2429 1828 C 2312 2239 2262 2400 2248 2413 C 2231 2428 2206 2430 2076 2430 C 1955 2430 1920 2427 1902 2414 Z M 2231 2393 C 2246 2378 2534 1361 2540 1351 C 2550.063 1331.331 2556.512 1299.478 2551.618 1268.81 C 2545.63 1231.286 2504.523 1204.058 2501 1200 C 2498.378 1196.979 2495 1186 2496 1169 C 2498 1135 2533.01 1085.176 2555.34 1077.27 C 2566.652 1073.265 2826 1075 3164 1076 L 3777 1078 L 3797.617 1066.833 L 3804.655 1051.425 C 3814.655 1033.425 3797.064 1021.707 3790.064 1017.707 C 3783.064 1013.707 3522 1006 3455 1010 C 3450 1010 3248 1010 3008 1010 C 2728 1010 2518.78 1016.8 2502.516 1027.451 C 2494.495 1032.704 2465.975 1057.033 2452.13 1086.348 C 2438.107 1116.041 2435.957 1156.143 2438.225 1182.841 C 2442.096 1228.408 2472.752 1271.522 2475 1303 C 2476 1318 2194 2307 2185 2317 C 2171 2330 2148 2333 2052 2332 C 1988 2332 1929 2335 1920 2340 C 1908 2346 1901 2391 1909 2407 C 1910 2407 1980 2407 2065 2407 C 2171 2405 2223 2401 2231 2393 Z" class="" stroke-width="1"></path>
    <path d="M 2421 2130 L 2673 1265 C 2673 1265 3772 1276 3786 1294 C 3797 1310 3799 2091 3780 2110 C 3760 2130 2421 2130 2421 2130 Z M 2460.657 2105.535 C 2453.657 2122.535 3766 2106 3768 2087 C 3776 2006 3781.478 1328.536 3763.478 1310.536 C 3749.478 1296.536 2703.738 1294.17 2695.738 1290.17 C 2683.738 1286.17 2464.657 2095.535 2460.657 2105.535 Z" class="" stroke-width="1"></path>
    <path d="M3454 1894 c3 -6 -6 -16 -19 -22 -14 -7 -25 -19 -25 -27 0 -9 -4 -14 -9 -11 -15 10 -19 -29 -4 -42 24 -23 7 -28 -81 -25 -55 1 -86 -2 -86 -9 0 -5 -6 -8 -14 -5 -11 4 -13 -7 -13 -53 1 -32 3 -58 6 -58 3 0 11 0 16 -2 6 -1 51 -2 102 -2 87 0 92 -2 82 -19 -5 -10 -18 -23 -30 -29 -11 -6 -17 -15 -13 -21 4 -6 12 -5 22 3 10 7 14 8 10 4 -4 -5 -3 -15 3 -22 8 -9 4 -12 -14 -10 -14 2 -24 -2 -24 -10 0 -9 5 -10 17 -4 11 6 22 5 30 -3 10 -9 11 -9 6 1 -9 16 3 15 23 -2 13 -11 21 -11 46 0 17 7 26 13 22 14 -5 0 8 16 29 35 20 19 40 32 45 30 4 -3 11 0 15 6 4 8 3 9 -4 5 -23 -14 -12 8 21 42 35 36 45 82 16 75 -9 -3 -20 1 -24 8 -5 7 -4 10 3 5 6 -3 14 -2 17 4 4 6 3 10 -2 9 -21 -4 -34 2 -27 13 4 6 3 8 -3 5 -14 -9 -34 16 -30 34 2 8 2 11 0 7 -7 -13 -23 -9 -20 4 1 7 -3 12 -10 13 -7 0 -19 9 -27 20 -9 11 -16 16 -16 11 0 -4 -9 2 -21 15 -11 13 -18 19 -15 13z m91 -114 l80 -80 -83 -82 -82 -83 -27 27 -27 28 34 35 34 35 -125 0 -124 0 0 40 0 40 124 0 125 0 -34 35 -34 35 24 25 c13 14 26 25 29 25 4 0 42 -36 86 -80z" class=""></path>
    <path d="M3583 1809 c-2 -23 3 -25 10 -4 4 8 3 16 -1 19 -4 3 -9 -4 -9 -15z"></path>
    <path d="M2652 881 c-153 -97 -34 -326 131 -253 54 24 78 57 84 115 6 49 -10 88 -51 126 -36 34 -118 40 -164 12z m140 -26 c13 -11 27 -23 33 -25 5 -3 10 -9 11 -15 17 -89 17 -95 -1 -95 -14 0 -15 -3 -5 -15 11 -13 10 -14 -4 -9 -12 4 -16 1 -16 -15 0 -16 -10 -23 -47 -34 -57 -17 -79 -13 -118 20 -16 14 -24 22 -17 18 6 -3 3 9 -8 28 -22 37 -18 102 5 94 6 -3 12 1 12 9 0 7 -4 11 -9 8 -4 -3 -5 2 -2 9 5 14 14 19 69 36 35 12 73 6 97 -14z" id="object-0"></path>
    <path d="M3462 880 c-44 -27 -75 -96 -66 -146 4 -20 20 -52 36 -70 116 -131 313 12 232 168 -34 65 -135 89 -202 48z m138 -15 c6 -4 9 -14 5 -22 -5 -14 -3 -14 12 -2 10 7 15 9 11 5 -9 -10 11 -38 21 -31 4 2 6 -22 5 -53 -4 -70 -6 -83 -12 -77 -3 3 -11 -3 -19 -13 -10 -11 -12 -12 -8 -2 4 10 2 9 -8 -2 -8 -10 -22 -18 -31 -18 -10 0 -14 -4 -11 -10 8 -13 -58 0 -66 13 -4 5 -11 7 -17 3 -12 -7 -34 18 -24 29 4 5 2 5 -4 2 -7 -4 -18 1 -25 10 -12 14 -12 16 1 8 12 -7 13 -6 4 6 -17 22 -26 51 -13 43 8 -4 9 3 4 24 -5 25 -3 31 15 37 11 3 18 11 15 16 -7 10 13 33 35 41 19 6 96 1 110 -7z" class=""></path>
    <path d="M3606 812 c-3 -4 4 -9 15 -9 23 -2 25 3 4 10 -8 4 -16 3 -19 -1z"></path>
    <path d="M3616 698 c3 -5 10 -6 15 -3 13 9 11 12 -6 12 -8 0 -12 -4 -9 -9z"></path>
  </g>
</svg>